# Blender v2.79 (sub 0) OBJ File: ''
# www.blender.org
o Cube
v 7.016033 -0.022422 -7.619437
v 7.016033 -0.022422 7.619437
v -7.016034 -0.022422 7.619436
v -7.016031 -0.022422 -7.619440
v 7.016037 0.022422 -7.619433
v 7.016028 0.022422 7.619442
v -7.016036 0.022422 7.619434
v -7.016033 0.022422 -7.619437
vt 1.000000 0.000000
vt 0.000000 1.000000
vt 0.000000 0.000000
vt 1.000000 0.000000
vt 0.000000 1.000000
vt 0.000000 0.000000
vt 1.000000 0.000000
vt 0.000000 1.000000
vt 1.000000 0.000000
vt 0.000000 1.000000
vt 0.000000 0.000000
vt 0.000000 0.000000
vt 1.000000 1.000000
vt 1.000000 0.000000
vt 0.000000 1.000000
vt 1.000000 1.000000
vt 1.000000 1.000000
vt 1.000000 1.000000
vt 1.000000 0.000000
vt 1.000000 1.000000
vn 0.0000 -1.0000 0.0000
vn 0.0000 1.0000 -0.0000
vn 1.0000 -0.0001 0.0000
vn -0.0000 -0.0001 1.0000
vn -1.0000 -0.0000 -0.0000
vn 0.0000 0.0001 -1.0000
vn 1.0000 0.0001 0.0000
vn -0.0000 0.0000 1.0000
s off
f 2/1/1 4/2/1 1/3/1
f 8/4/2 6/5/2 5/6/2
f 5/7/3 2/8/3 1/3/3
f 6/9/4 3/10/4 2/11/4
f 3/12/5 8/13/5 4/2/5
f 1/14/6 8/15/6 5/6/6
f 2/1/1 3/16/1 4/2/1
f 8/4/2 7/17/2 6/5/2
f 5/7/7 6/18/7 2/8/7
f 6/9/8 7/17/8 3/10/8
f 3/12/5 7/19/5 8/13/5
f 1/14/6 4/20/6 8/15/6