# Blender v2.79 (sub 0) OBJ File: 'chess.blend'
# www.blender.org
o board_Cube
v -6.372121 -0.440546 6.372121
v -6.372121 0.046844 6.372121
v -6.372121 -0.440546 -6.372121
v -6.372121 0.046844 -6.372121
v 6.372121 -0.440546 6.372121
v 6.372121 0.046844 6.372121
v 6.372121 -0.440546 -6.372121
v 6.372121 0.046844 -6.372121
v -6.372121 0.046844 4.779091
v -6.372121 0.046844 3.186061
v -6.372121 0.046844 1.593030
v -6.372121 0.046844 0.000000
v -6.372121 0.046844 -1.593030
v -6.372121 0.046844 -3.186061
v -6.372121 0.046844 -4.779091
v -4.779091 0.046844 -6.372121
v -3.186061 0.046844 -6.372121
v -1.593030 0.046844 -6.372121
v 0.000000 0.046844 -6.372121
v 1.593030 0.046844 -6.372121
v 3.186061 0.046844 -6.372121
v 4.779091 0.046844 -6.372121
v 6.372121 0.046844 -4.779091
v 6.372121 0.046844 -3.186061
v 6.372121 0.046844 -1.593030
v 6.372121 0.046844 0.000000
v 6.372121 0.046844 1.593030
v 6.372121 0.046844 3.186061
v 6.372121 0.046844 4.779091
v 4.779091 0.046844 6.372121
v 3.186061 0.046844 6.372121
v 1.593030 0.046844 6.372121
v 0.000000 0.046844 6.372121
v -1.593030 0.046844 6.372121
v -3.186061 0.046844 6.372121
v -4.779091 0.046844 6.372121
v 4.779091 0.046844 -4.779091
v 4.779091 0.046844 -3.186061
v 4.779091 0.046844 -1.593030
v 4.779091 0.046844 0.000000
v 4.779091 0.046844 1.593030
v 4.779091 0.046844 3.186061
v 4.779091 0.046844 4.779091
v 3.186061 0.046844 -4.779091
v 3.186061 0.046844 -3.186061
v 3.186061 0.046844 -1.593030
v 3.186061 0.046844 0.000000
v 3.186061 0.046844 1.593030
v 3.186061 0.046844 3.186061
v 3.186061 0.046844 4.779091
v 1.593030 0.046844 -4.779091
v 1.593030 0.046844 -3.186061
v 1.593030 0.046844 -1.593030
v 1.593030 0.046844 0.000000
v 1.593030 0.046844 1.593030
v 1.593030 0.046844 3.186061
v 1.593030 0.046844 4.779091
v 0.000000 0.046844 -4.779091
v 0.000000 0.046844 -3.186061
v 0.000000 0.046844 -1.593030
v 0.000000 0.046844 0.000000
v 0.000000 0.046844 1.593030
v 0.000000 0.046844 3.186061
v 0.000000 0.046844 4.779091
v -1.593030 0.046844 -4.779091
v -1.593030 0.046844 -3.186061
v -1.593030 0.046844 -1.593030
v -1.593030 0.046844 0.000000
v -1.593030 0.046844 1.593030
v -1.593030 0.046844 3.186061
v -1.593030 0.046844 4.779091
v -3.186061 0.046844 -4.779091
v -3.186061 0.046844 -3.186061
v -3.186061 0.046844 -1.593030
v -3.186061 0.046844 0.000000
v -3.186061 0.046844 1.593030
v -3.186061 0.046844 3.186061
v -3.186061 0.046844 4.779091
v -4.779091 0.046844 -4.779091
v -4.779091 0.046844 -3.186061
v -4.779091 0.046844 -1.593030
v -4.779091 0.046844 0.000000
v -4.779091 0.046844 1.593030
v -4.779091 0.046844 3.186061
v -4.779091 0.046844 4.779091
vt 0.719553 0.039715
vt 0.830410 0.039715
vt 0.941267 0.011405
vt 0.701103 0.976161
vt 0.811960 0.976161
vt 0.922817 0.948092
vt 0.977389 0.963183
vt 0.981792 0.963183
vt 0.986194 0.076326
vt 0.005644 0.891765
vt 0.002213 0.891765
vt -0.001217 0.114145
vt 1.054519 0.942953
vt 0.167663 0.056097
vt 0.167663 0.942953
vt 0.167663 0.166954
vt 0.278520 0.056097
vt 0.278520 0.166954
vt 0.832805 0.166954
vt 0.943662 0.056097
vt 0.943662 0.166954
vt 0.611091 0.166954
vt 0.721948 0.056097
vt 0.721948 0.166954
vt 0.389377 0.166954
vt 0.500234 0.056097
vt 0.500234 0.166954
vt 0.056806 0.942953
vt 0.167663 0.832096
vt 0.167663 0.942953
vt 0.056806 0.721239
vt 0.167663 0.610382
vt 0.167663 0.721239
vt 0.056806 0.499525
vt 0.167663 0.388668
vt 0.167663 0.499525
vt 0.056806 0.277811
vt 0.167663 0.166954
vt 0.167663 0.277811
vt 0.832805 0.832096
vt 0.943662 0.721239
vt 0.943662 0.832096
vt 0.832805 0.610382
vt 0.943662 0.499525
vt 0.943662 0.610382
vt 0.832805 0.388668
vt 0.943662 0.277811
vt 0.943662 0.388668
vt 0.721948 0.942953
vt 0.832805 0.942953
vt 0.721948 0.721239
vt 0.832805 0.721239
vt 0.721948 0.499525
vt 0.832805 0.499525
vt 0.721948 0.277811
vt 0.832805 0.277811
vt 0.611091 0.832096
vt 0.721948 0.832096
vt 0.611091 0.610382
vt 0.721948 0.610382
vt 0.611091 0.388668
vt 0.721948 0.388668
vt 0.500234 0.942953
vt 0.611091 0.942953
vt 0.500234 0.721239
vt 0.611091 0.721239
vt 0.500234 0.499525
vt 0.611091 0.499525
vt 0.500234 0.277811
vt 0.611091 0.277811
vt 0.389377 0.832096
vt 0.500234 0.832096
vt 0.389377 0.610382
vt 0.500234 0.610382
vt 0.389377 0.388668
vt 0.500234 0.388668
vt 0.278520 0.942953
vt 0.389377 0.942953
vt 0.278520 0.721239
vt 0.389377 0.721239
vt 0.278520 0.499525
vt 0.389377 0.499525
vt 0.278520 0.277811
vt 0.389377 0.277811
vt 0.167663 0.832096
vt 0.278520 0.832096
vt 0.167663 0.610382
vt 0.278520 0.610382
vt 0.167663 0.388668
vt 0.278520 0.388668
vt 0.054411 0.011405
vt 0.497839 0.039715
vt 0.054411 0.039715
vt 0.165267 0.039715
vt 0.276124 0.039715
vt 0.386982 0.039715
vt 0.941267 0.039715
vt 0.608696 0.039715
vt 0.035960 0.948092
vt 0.479388 0.976161
vt 0.035960 0.976161
vt 0.146817 0.976161
vt 0.257674 0.976161
vt 0.368531 0.976161
vt 0.922817 0.976161
vt 0.590245 0.976161
vt 0.950973 0.076326
vt 0.968583 0.963183
vt 0.950973 0.963183
vt 0.955375 0.963183
vt 0.959778 0.963183
vt 0.964181 0.963183
vt 0.986194 0.963183
vt 0.972986 0.963183
vt 0.026228 0.114145
vt 0.012506 0.891765
vt 0.026228 0.891765
vt 0.022798 0.891765
vt 0.019367 0.891765
vt 0.015936 0.891765
vt -0.001217 0.891765
vt 0.009075 0.891765
vt 1.054519 0.056097
vt 0.167663 0.056097
vt 0.832805 0.056097
vt 0.611091 0.056097
vt 0.389377 0.056097
vt 0.056806 0.832096
vt 0.056806 0.610382
vt 0.056806 0.388668
vt 0.056806 0.166954
vt 0.167663 0.721239
vt 0.167663 0.499525
vt 0.167663 0.277811
vt 0.167663 0.056097
vt 0.943662 0.942953
vt 0.167663 0.942953
vt 0.056806 0.056097
vn -1.0000 0.0000 0.0000
vn 0.0000 0.0000 -1.0000
vn 1.0000 0.0000 0.0000
vn 0.0000 0.0000 1.0000
vn 0.0000 -1.0000 0.0000
vn 0.0000 1.0000 0.0000
s off
f 14/1/1 15/2/1 3/3/1
f 21/4/2 22/5/2 7/6/2
f 28/7/3 29/8/3 5/9/3
f 35/10/4 36/11/4 1/12/4
f 7/13/5 1/14/5 3/15/5
f 9/16/6 36/17/6 85/18/6
f 50/19/6 30/20/6 43/21/6
f 64/22/6 32/23/6 57/24/6
f 78/25/6 34/26/6 71/27/6
f 22/28/6 23/29/6 8/30/6
f 38/31/6 25/32/6 24/33/6
f 40/34/6 27/35/6 26/36/6
f 42/37/6 29/38/6 28/39/6
f 44/40/6 38/41/6 37/42/6
f 46/43/6 40/44/6 39/45/6
f 48/46/6 42/47/6 41/48/6
f 20/49/6 44/40/6 21/50/6
f 52/51/6 46/43/6 45/52/6
f 54/53/6 48/46/6 47/54/6
f 56/55/6 50/19/6 49/56/6
f 58/57/6 52/51/6 51/58/6
f 60/59/6 54/53/6 53/60/6
f 62/61/6 56/55/6 55/62/6
f 18/63/6 58/57/6 19/64/6
f 66/65/6 60/59/6 59/66/6
f 68/67/6 62/61/6 61/68/6
f 70/69/6 64/22/6 63/70/6
f 72/71/6 66/65/6 65/72/6
f 74/73/6 68/67/6 67/74/6
f 76/75/6 70/69/6 69/76/6
f 16/77/6 72/71/6 17/78/6
f 80/79/6 74/73/6 73/80/6
f 82/81/6 76/75/6 75/82/6
f 84/83/6 78/25/6 77/84/6
f 15/85/6 80/79/6 79/86/6
f 13/87/6 82/81/6 81/88/6
f 11/89/6 84/83/6 83/90/6
f 3/3/1 1/91/1 12/92/1
f 1/91/1 2/93/1 9/94/1
f 9/94/1 10/95/1 1/91/1
f 10/95/1 11/96/1 1/91/1
f 1/91/1 11/96/1 12/92/1
f 15/2/1 4/97/1 3/3/1
f 12/92/1 13/98/1 3/3/1
f 13/98/1 14/1/1 3/3/1
f 7/6/2 3/99/2 19/100/2
f 3/99/2 4/101/2 16/102/2
f 16/102/2 17/103/2 3/99/2
f 17/103/2 18/104/2 3/99/2
f 3/99/2 18/104/2 19/100/2
f 22/5/2 8/105/2 7/6/2
f 19/100/2 20/106/2 7/6/2
f 20/106/2 21/4/2 7/6/2
f 5/9/3 7/107/3 26/108/3
f 7/107/3 8/109/3 23/110/3
f 23/110/3 24/111/3 7/107/3
f 24/111/3 25/112/3 7/107/3
f 7/107/3 25/112/3 26/108/3
f 29/8/3 6/113/3 5/9/3
f 26/108/3 27/114/3 5/9/3
f 27/114/3 28/7/3 5/9/3
f 1/12/4 5/115/4 33/116/4
f 5/115/4 6/117/4 30/118/4
f 30/118/4 31/119/4 5/115/4
f 31/119/4 32/120/4 5/115/4
f 5/115/4 32/120/4 33/116/4
f 36/11/4 2/121/4 1/12/4
f 33/116/4 34/122/4 1/12/4
f 34/122/4 35/10/4 1/12/4
f 7/13/5 5/123/5 1/14/5
f 9/16/6 2/124/6 36/17/6
f 50/19/6 31/125/6 30/20/6
f 64/22/6 33/126/6 32/23/6
f 78/25/6 35/127/6 34/26/6
f 22/28/6 37/128/6 23/29/6
f 38/31/6 39/129/6 25/32/6
f 40/34/6 41/130/6 27/35/6
f 42/37/6 43/131/6 29/38/6
f 44/40/6 45/52/6 38/41/6
f 46/43/6 47/54/6 40/44/6
f 48/46/6 49/56/6 42/47/6
f 20/49/6 51/58/6 44/40/6
f 52/51/6 53/60/6 46/43/6
f 54/53/6 55/62/6 48/46/6
f 56/55/6 57/24/6 50/19/6
f 58/57/6 59/66/6 52/51/6
f 60/59/6 61/68/6 54/53/6
f 62/61/6 63/70/6 56/55/6
f 18/63/6 65/72/6 58/57/6
f 66/65/6 67/74/6 60/59/6
f 68/67/6 69/76/6 62/61/6
f 70/69/6 71/27/6 64/22/6
f 72/71/6 73/80/6 66/65/6
f 74/73/6 75/82/6 68/67/6
f 76/75/6 77/84/6 70/69/6
f 16/77/6 79/86/6 72/71/6
f 80/79/6 81/88/6 74/73/6
f 82/81/6 83/90/6 76/75/6
f 84/83/6 85/18/6 78/25/6
f 15/85/6 14/132/6 80/79/6
f 13/87/6 12/133/6 82/81/6
f 11/89/6 10/134/6 84/83/6
f 43/131/6 6/135/6 29/38/6
f 57/24/6 31/125/6 50/19/6
f 71/27/6 33/126/6 64/22/6
f 85/18/6 35/127/6 78/25/6
f 37/128/6 24/33/6 23/29/6
f 39/129/6 26/36/6 25/32/6
f 41/130/6 28/39/6 27/35/6
f 21/50/6 37/42/6 22/136/6
f 45/52/6 39/45/6 38/41/6
f 47/54/6 41/48/6 40/44/6
f 49/56/6 43/21/6 42/47/6
f 51/58/6 45/52/6 44/40/6
f 53/60/6 47/54/6 46/43/6
f 55/62/6 49/56/6 48/46/6
f 19/64/6 51/58/6 20/49/6
f 59/66/6 53/60/6 52/51/6
f 61/68/6 55/62/6 54/53/6
f 63/70/6 57/24/6 56/55/6
f 65/72/6 59/66/6 58/57/6
f 67/74/6 61/68/6 60/59/6
f 69/76/6 63/70/6 62/61/6
f 17/78/6 65/72/6 18/63/6
f 73/80/6 67/74/6 66/65/6
f 75/82/6 69/76/6 68/67/6
f 77/84/6 71/27/6 70/69/6
f 79/86/6 73/80/6 72/71/6
f 81/88/6 75/82/6 74/73/6
f 83/90/6 77/84/6 76/75/6
f 4/137/6 79/86/6 16/77/6
f 14/132/6 81/88/6 80/79/6
f 12/133/6 83/90/6 82/81/6
f 10/134/6 85/18/6 84/83/6
f 43/131/6 30/138/6 6/135/6
f 57/24/6 32/23/6 31/125/6
f 71/27/6 34/26/6 33/126/6
f 85/18/6 36/17/6 35/127/6
f 37/128/6 38/31/6 24/33/6
f 39/129/6 40/34/6 26/36/6
f 41/130/6 42/37/6 28/39/6
f 21/50/6 44/40/6 37/42/6
f 45/52/6 46/43/6 39/45/6
f 47/54/6 48/46/6 41/48/6
f 49/56/6 50/19/6 43/21/6
f 51/58/6 52/51/6 45/52/6
f 53/60/6 54/53/6 47/54/6
f 55/62/6 56/55/6 49/56/6
f 19/64/6 58/57/6 51/58/6
f 59/66/6 60/59/6 53/60/6
f 61/68/6 62/61/6 55/62/6
f 63/70/6 64/22/6 57/24/6
f 65/72/6 66/65/6 59/66/6
f 67/74/6 68/67/6 61/68/6
f 69/76/6 70/69/6 63/70/6
f 17/78/6 72/71/6 65/72/6
f 73/80/6 74/73/6 67/74/6
f 75/82/6 76/75/6 69/76/6
f 77/84/6 78/25/6 71/27/6
f 79/86/6 80/79/6 73/80/6
f 81/88/6 82/81/6 75/82/6
f 83/90/6 84/83/6 77/84/6
f 4/137/6 15/85/6 79/86/6
f 14/132/6 13/87/6 81/88/6
f 12/133/6 11/89/6 83/90/6
f 10/134/6 9/16/6 85/18/6
